<?xml version="1.0" encoding="utf-8"?>
<!-- Uploaded to: SVG Repo, www.svgrepo.com, Generator: SVG Repo Mixer Tools -->
<svg width="800px" height="800px" viewBox="0 0 26 26" xmlns="http://www.w3.org/2000/svg">
  <g id="donut" transform="translate(-238.977 -136.994)">
    <g id="Group_310" data-name="Group 310">
      <g id="Group_303" data-name="Group 303">
        <g id="Group_302" data-name="Group 302">
          <path id="Path_229" data-name="Path 229" d="M251.977,137.494a12.5,12.5,0,1,0,12.5,12.5A12.5,12.5,0,0,0,251.977,137.494Zm0,16.43a3.93,3.93,0,1,1,3.93-3.93A3.931,3.931,0,0,1,251.977,153.924Z" fill="#f9cb99"/>
        </g>
      </g>
      <g id="light" opacity="0.35">
        <g id="Group_305" data-name="Group 305">
          <g id="Group_304" data-name="Group 304">
            <path id="Path_230" data-name="Path 230" d="M242.007,151.494c0-6.9,4.478-11.72,11.378-11.72,3.068,0,5.967.332,8.144,2.168a12.494,12.494,0,1,0-17.6,17.6C242.088,157.37,242.007,154.562,242.007,151.494Z" fill="#ffffff"/>
          </g>
        </g>
      </g>
      <g id="Group_307" data-name="Group 307">
        <g id="Group_306" data-name="Group 306">
          <path id="Path_231" data-name="Path 231" d="M262.567,145.6c-.54-1.31-2.55-1.67-3.54-2.66s-1.35-3-2.66-3.54c-1.27-.52-2.94.62-4.39.62s-3.12-1.14-4.39-.62c-1.31.54-1.67,2.55-2.66,3.54s-3,1.35-3.54,2.66c-.52,1.27.62,2.94.62,4.39s-1.14,3.12-.62,4.39c.54,1.31,2.55,1.67,3.54,2.66s1.35,3,2.66,3.54c1.27.52,2.94-.62,4.39-.62s3.12,1.14,4.39.62c1.31-.54,1.67-2.55,2.66-3.54s3-1.35,3.54-2.66c.52-1.27-.62-2.94-.62-4.39S263.087,146.874,262.567,145.6Zm-10.59,8.32a3.93,3.93,0,1,1,3.93-3.93A3.931,3.931,0,0,1,251.977,153.924Z" fill="#ffa99f"/>
        </g>
      </g>
      <g id="Group_309" data-name="Group 309" opacity="0.35">
        <g id="Group_308" data-name="Group 308">
          <path id="Path_232" data-name="Path 232" d="M241.387,147.1c1.7-2.876,2.913-2.157,4.179-3.423.99-.99,1.285-2.468,2.021-2.777,1.265-.531,2.94.62,4.39.62s3.12-1.14,4.39-.62c1.31.54,1.378,2.33,3.121,3a2.967,2.967,0,0,0-.461-.956c-.875-1.094-1.35-3-2.66-3.54-1.27-.52-2.94.62-4.39.62s-3.12-1.14-4.39-.62c-1.31.54-1.67,2.55-2.66,3.54s-3,1.35-3.54,2.66a2.634,2.634,0,0,0-.024,1.6A.394.394,0,0,1,241.387,147.1Z" fill="#ffffff"/>
        </g>
      </g>
    </g>
    <path id="Path_233" data-name="Path 233" d="M251.977,162.994a13,13,0,1,1,13-13A13.015,13.015,0,0,1,251.977,162.994Zm0-25a12,12,0,1,0,12,12A12.013,12.013,0,0,0,251.977,137.994Zm0,16.43a4.43,4.43,0,1,1,4.429-4.43A4.435,4.435,0,0,1,251.977,154.424Zm0-7.86a3.43,3.43,0,1,0,3.429,3.43A3.434,3.434,0,0,0,251.977,146.564Z" fill="#282b24"/>
    <path id="Path_234" data-name="Path 234" d="M248.331,161.22a2.443,2.443,0,0,1-.934-.173,4.3,4.3,0,0,1-1.919-2.237,5.9,5.9,0,0,0-.9-1.413,5.978,5.978,0,0,0-1.412-.9,3.221,3.221,0,0,1-2.016-4.788,4.222,4.222,0,0,0,0-3.421,3.219,3.219,0,0,1,2.016-4.787,3.921,3.921,0,0,0,2.317-2.318,3.221,3.221,0,0,1,4.788-2.016,4.222,4.222,0,0,0,3.421,0,3.219,3.219,0,0,1,4.788,2.017,3.923,3.923,0,0,0,2.317,2.317,4.286,4.286,0,0,1,2.236,1.917h0a4.3,4.3,0,0,1-.221,2.869,4.222,4.222,0,0,0,0,3.421,3.219,3.219,0,0,1-2.016,4.788,3.923,3.923,0,0,0-2.317,2.317,3.219,3.219,0,0,1-4.788,2.016,4.233,4.233,0,0,0-3.421,0A6.839,6.839,0,0,1,248.331,161.22Zm0-21.452a1.457,1.457,0,0,0-.558.1c-.612.252-1,.992-1.412,1.776a4.844,4.844,0,0,1-2.738,2.738c-.784.411-1.525.8-1.777,1.413a3.6,3.6,0,0,0,.252,2.2,5.136,5.136,0,0,1,0,4,3.6,3.6,0,0,0-.251,2.2c.251.612.992,1,1.776,1.412a4.844,4.844,0,0,1,2.738,2.738c.411.784.8,1.523,1.413,1.776a3.6,3.6,0,0,0,2.2-.252,5.148,5.148,0,0,1,4,0,3.6,3.6,0,0,0,2.2.252c.613-.253,1-.993,1.413-1.777a4.84,4.84,0,0,1,2.737-2.737c.784-.411,1.524-.8,1.777-1.413a3.6,3.6,0,0,0-.253-2.2,5.148,5.148,0,0,1,0-4,3.589,3.589,0,0,0,.252-2.2c-.253-.613-.993-1-1.776-1.412a4.84,4.84,0,0,1-2.737-2.737c-.411-.784-.8-1.525-1.414-1.778a3.6,3.6,0,0,0-2.2.253,5.148,5.148,0,0,1-4,0A6.113,6.113,0,0,0,248.334,139.768Zm3.642,14.656a4.43,4.43,0,1,1,4.43-4.43A4.434,4.434,0,0,1,251.976,154.424Zm0-7.86a3.43,3.43,0,1,0,3.43,3.43A3.433,3.433,0,0,0,251.976,146.564Z" fill="#282b24"/>
    <g id="Group_335" data-name="Group 335">
      <g id="Group_312" data-name="Group 312">
        <g id="Group_311" data-name="Group 311">
          <path id="Path_235" data-name="Path 235" d="M255.457,144.925a.5.5,0,0,1-.492-.418l-.229-1.381a.5.5,0,1,1,.987-.163l.228,1.381a.5.5,0,0,1-.411.574A.472.472,0,0,1,255.457,144.925Z" fill="#282b24"/>
        </g>
      </g>
      <g id="Group_314" data-name="Group 314">
        <g id="Group_313" data-name="Group 313">
          <path id="Path_236" data-name="Path 236" d="M248.1,145.261a.484.484,0,0,1-.221-.052l-1.254-.621a.5.5,0,1,1,.443-.9l1.254.622a.5.5,0,0,1-.222.947Z" fill="#282b24"/>
        </g>
      </g>
      <g id="Group_316" data-name="Group 316">
        <g id="Group_315" data-name="Group 315">
          <path id="Path_237" data-name="Path 237" d="M245.261,148.623a.489.489,0,0,1-.054,0,.5.5,0,0,1-.444-.55l.147-1.392a.5.5,0,0,1,.994.105l-.147,1.393A.5.5,0,0,1,245.261,148.623Z" fill="#282b24"/>
        </g>
      </g>
      <g id="Group_318" data-name="Group 318">
        <g id="Group_317" data-name="Group 317">
          <path id="Path_238" data-name="Path 238" d="M244.044,152.168a.5.5,0,0,1-.236-.941l1.234-.661a.5.5,0,0,1,.473.882l-1.235.661A.5.5,0,0,1,244.044,152.168Z" fill="#282b24"/>
        </g>
      </g>
      <g id="Group_320" data-name="Group 320">
        <g id="Group_319" data-name="Group 319">
          <path id="Path_239" data-name="Path 239" d="M251.71,143.861a.516.516,0,0,1-.191-.038.5.5,0,0,1-.271-.653l.534-1.294a.5.5,0,1,1,.924.382l-.534,1.294A.5.5,0,0,1,251.71,143.861Z" fill="#282b24"/>
        </g>
      </g>
      <g id="Group_322" data-name="Group 322">
        <g id="Group_321" data-name="Group 321">
          <path id="Path_240" data-name="Path 240" d="M258.807,151.141a.5.5,0,0,1-.462-.691l.534-1.294a.5.5,0,0,1,.924.382l-.535,1.294A.5.5,0,0,1,258.807,151.141Z" fill="#282b24"/>
        </g>
      </g>
      <g id="Group_324" data-name="Group 324">
        <g id="Group_323" data-name="Group 323">
          <path id="Path_241" data-name="Path 241" d="M246.276,155.125a.5.5,0,0,1-.343-.137l-1.017-.962a.5.5,0,1,1,.687-.727l1.017.962a.5.5,0,0,1-.344.864Z" fill="#282b24"/>
        </g>
      </g>
      <g id="Group_326" data-name="Group 326">
        <g id="Group_325" data-name="Group 325">
          <path id="Path_242" data-name="Path 242" d="M252.477,157.706a.5.5,0,0,1-.5-.459l-.115-1.395a.5.5,0,0,1,.457-.54.516.516,0,0,1,.539.458l.115,1.395a.5.5,0,0,1-.457.54Z" fill="#282b24"/>
        </g>
      </g>
      <g id="Group_328" data-name="Group 328">
        <g id="Group_327" data-name="Group 327">
          <path id="Path_243" data-name="Path 243" d="M258.767,154.57a.5.5,0,0,1-.4-.206l-.824-1.132a.5.5,0,0,1,.809-.589l.824,1.132a.5.5,0,0,1-.4.8Z" fill="#282b24"/>
        </g>
      </g>
      <g id="Group_330" data-name="Group 330">
        <g id="Group_329" data-name="Group 329">
          <path id="Path_244" data-name="Path 244" d="M255.788,157.2a.486.486,0,0,1-.163-.028.5.5,0,0,1-.31-.636l.458-1.323a.5.5,0,0,1,.946.327l-.458,1.323A.5.5,0,0,1,255.788,157.2Z" fill="#282b24"/>
        </g>
      </g>
      <g id="Group_332" data-name="Group 332">
        <g id="Group_331" data-name="Group 331">
          <path id="Path_245" data-name="Path 245" d="M248.619,157.213a.5.5,0,0,1-.088-.993l1.378-.248a.5.5,0,0,1,.178.985l-1.378.248A.557.557,0,0,1,248.619,157.213Z" fill="#282b24"/>
        </g>
      </g>
      <g id="Group_334" data-name="Group 334">
        <g id="Group_333" data-name="Group 333">
          <path id="Path_246" data-name="Path 246" d="M257.869,146.952a.5.5,0,0,1-.061-1l1.388-.174a.5.5,0,1,1,.125.992l-1.388.175C257.911,146.951,257.891,146.952,257.869,146.952Z" fill="#282b24"/>
        </g>
      </g>
    </g>
  </g>
</svg>